<?xml version="1.0" encoding="UTF-8"?>
<!-- Uploaded to: SVG Find, www.svgfind.com, Generator: SVG Find Mixer Tools -->
<svg fill="#f4dfba" width="37px" height="37px" version="1.1" viewBox="144 144 512 512" xmlns="http://www.w3.org/2000/svg">
 <g>
  <path d="m439.44 204.2h-5.8789c-17.762 0-50.715 0-68.23 0.85547h-0.85547c-7.5938-0.73438-14.82-0.97656-21.316-0.97656-57.812 0-167.08 24.621-167.08 117.71 0 13.105 3.5547 25.965 10.289 37.234 9.1875 15.191 15.559 20.211 19.355 23.152 0.73438 0.48828 1.5938 1.2266 1.7148 1.4688 1.3477 2.4492 1.3477 18.621 1.3477 35.77v125.8c0 27.809 22.66 50.469 50.465 50.469h281.36c27.809 0 50.469-22.66 50.469-50.469v-125.8c0-15.68 0-33.32 1.4688-35.891 0.24609-0.24609 1.1055-0.98047 1.8398-1.4688 3.7969-2.9414 10.289-7.9648 19.477-23.52 6.6133-11.148 10.043-23.887 10.043-36.746 0-85.746-113.18-117.71-184.47-117.71zm20.332 341.02c0 18.129-14.699 32.828-32.828 32.828h-167.57c-18.129 0-32.828-14.699-32.828-32.828v-125.8c0-39.199 0-43.363-9.9219-51.078-3.0625-2.3281-7.5938-6.0039-15.066-18.375-5.1445-8.4531-7.8398-18.25-7.8398-28.172 0-79.133 97.746-100.08 149.44-100.08 51.695 0 149.44 20.945 149.44 100.08 0 9.7969-2.5703 19.352-7.5938 27.805-7.4727 12.617-12.004 16.168-15.066 18.496-10.043 7.8398-10.043 12.738-10.043 51.324v125.8zm138.91-195.62c-7.4727 12.617-12.004 16.168-15.066 18.496-2.3281 1.8359-4.1641 3.5508-5.6328 5.5117h-70.066c-4.8984 0-8.8203 3.918-8.8203 8.8203 0 4.8984 3.9219 8.8164 8.8203 8.8164h66.023c-0.36719 6.6172-0.36719 15.68-0.36719 28.055v125.8c0 18.129-14.699 32.828-32.828 32.828h-75.332c7.5938-8.8203 12.125-20.332 12.125-32.828v-125.8c0-15.68 0-33.32 1.4727-35.891 0.24219-0.24609 1.1016-0.98047 1.8359-1.4727 3.7969-2.9375 10.289-7.9609 19.477-23.516 6.6133-11.148 10.043-23.887 10.043-36.75 0-52.547-34.789-83.293-75.578-100.07h4.7773c43.242 0 166.84 18.371 166.84 100.07 0 9.8008-2.5742 19.355-7.5938 27.805z"/>
  <path d="m378.31 568.61h-0.73438c-4.9023 0-8.8203-3.9219-8.8203-8.8203 0-4.8984 3.918-8.8203 8.8203-8.8203 4.8984 0 9.1836 3.9219 9.1836 8.8203 0 4.8984-3.5508 8.8203-8.4492 8.8203z"/>
  <path d="m438.95 565.79h-0.73437c-4.8984 0-8.8164-3.918-8.8164-8.8203 0-4.8984 3.918-8.8164 8.8164-8.8164 4.9023 0 9.1875 3.918 9.1875 8.8164 0 4.9023-3.5508 8.8203-8.4531 8.8203z"/>
  <path d="m415.8 539.21h-0.73438c-4.9023 0-8.8203-3.9219-8.8203-8.8203s3.918-8.8203 8.8203-8.8203c4.8984 0 9.1875 3.9219 9.1875 8.8203s-3.5547 8.8203-8.4531 8.8203z"/>
  <path d="m419.47 512.51h-0.73438c-4.8984 0-8.8203-3.9219-8.8203-8.8203 0-4.8984 3.9219-8.8203 8.8203-8.8203 4.8984 0 9.1875 3.9219 9.1875 8.8203 0 4.8984-3.5547 8.8203-8.4531 8.8203z"/>
  <path d="m436.98 440h-0.73438c-4.8984 0-8.8203-3.918-8.8203-8.8203 0-4.8984 3.9219-8.8203 8.8203-8.8203s9.1875 3.9219 9.1875 8.8203c0 4.9023-3.5508 8.8203-8.4531 8.8203z"/>
  <path d="m430.49 366.5h-0.73438c-4.8984 0-8.8164-3.918-8.8164-8.8203 0-4.8984 3.918-8.8164 8.8164-8.8164 4.9023 0 9.1875 3.918 9.1875 8.8164 0 4.9023-3.5508 8.8203-8.4531 8.8203z"/>
  <path d="m267.21 360.98h-0.73438c-4.8984 0-8.8203-3.918-8.8203-8.8164 0-4.9023 3.9219-8.8203 8.8203-8.8203 4.8984 0 9.1875 3.918 9.1875 8.8203 0 4.8984-3.5547 8.8164-8.4531 8.8164z"/>
  <path d="m312.04 326.07h-0.73828c-4.8984 0-8.8164-3.9219-8.8164-8.8203s3.918-8.8203 8.8164-8.8203c4.9023 0 9.1875 3.9219 9.1875 8.8203s-3.5508 8.8203-8.4492 8.8203z"/>
  <path d="m240.27 319.59h-0.73438c-4.9023 0-8.8203-3.9219-8.8203-8.8203s3.918-8.8203 8.8203-8.8203c4.8984 0 9.1836 3.9219 9.1836 8.8203s-3.5508 8.8203-8.4492 8.8203z"/>
  <path d="m274.56 317.74h-0.73438c-4.8984 0-8.8203-3.918-8.8203-8.8203 0-4.8984 3.9219-8.8164 8.8203-8.8164 4.9023 0 9.1875 3.918 9.1875 8.8164 0 4.9023-3.5508 8.8203-8.4531 8.8203z"/>
  <path d="m258.88 282.84h-0.73828c-4.8984 0-8.8164-3.918-8.8164-8.8164 0-4.9023 3.918-8.8203 8.8164-8.8203 4.9023 0 9.1875 3.918 9.1875 8.8203 0 4.8984-3.5508 8.8164-8.4492 8.8164z"/>
  <path d="m355.4 268.14h-0.73438c-4.8984 0-8.8164-3.918-8.8164-8.8203 0-4.8984 3.918-8.8203 8.8164-8.8203 4.8984 0 9.1875 3.9219 9.1875 8.8203 0 4.9023-3.5508 8.8203-8.4531 8.8203z"/>
 </g>
</svg>

